<?xml version="1.0" encoding="UTF-8"?>
<!DOCTYPE svg PUBLIC "-//W3C//DTD SVG 1.1//EN" "http://www.w3.org/Graphics/SVG/1.1/DTD/svg11.dtd">
<!-- Creator: CorelDRAW 2018 (64-Bit) -->
<svg xmlns="http://www.w3.org/2000/svg" xml:space="preserve" width="248.82mm" height="84.8666mm" version="1.1" style="shape-rendering:geometricPrecision; text-rendering:geometricPrecision; image-rendering:optimizeQuality; fill-rule:evenodd; clip-rule:evenodd"
viewBox="0 0 21915.57 7474.88"
 xmlns:xlink="http://www.w3.org/1999/xlink">
 <defs>
  <style type="text/css">
   <![CDATA[
    .fil0 {fill:red;fill-rule:nonzero}
   ]]>
  </style>
 </defs>
 <g id="Layer_x0020_1">
  <metadata id="CorelCorpID_0Corel-Layer"/>
  <path class="fil0" d="M1352.92 7357.59l-233.38 0 -33.5 106.47 -210.27 0 250.92 -646.02 225.46 0 249.82 646.02 -215.69 0 -33.36 -106.47zm-43.6 -139.85l-72.77 -232.18 -73.1 232.18 145.87 0z"/>
  <path id="1" class="fil0" d="M1631.6 7250.37l195.52 -11.88c4.18,30.68 12.88,54.14 25.91,70.07 21.25,26.02 51.51,39.1 90.92,39.1 29.32,0 51.98,-6.61 67.81,-19.99 15.98,-13.39 23.9,-28.87 23.9,-46.47 0,-16.69 -7.45,-31.73 -22.5,-44.96 -15.05,-13.23 -50.12,-25.56 -105.2,-37.44 -90.32,-19.55 -154.55,-45.71 -193.03,-78.35 -38.8,-32.48 -58.19,-73.99 -58.19,-124.52 0,-33.08 9.94,-64.36 29.8,-93.83 19.86,-29.63 49.66,-52.79 89.53,-69.63 39.87,-16.84 94.5,-25.27 163.86,-25.27 85.19,0 150.04,15.34 194.74,46.17 44.69,30.68 71.22,79.55 79.75,146.61l-193.65 11.13c-5.13,-29.33 -15.99,-50.68 -32.43,-63.91 -16.6,-13.39 -39.41,-20 -68.44,-20 -23.9,0 -42.05,4.96 -54.15,14.74 -12.1,9.78 -18.16,21.81 -18.16,35.94 0,10.23 4.98,19.4 14.74,27.67 9.47,8.57 32.43,16.39 68.74,23.75 90,18.8 154.39,37.9 193.19,57.15 38.94,19.25 67.34,43.01 85.03,71.58 17.69,28.42 26.53,60.3 26.53,95.64 0,41.35 -11.78,79.54 -35.37,114.58 -23.75,34.89 -56.64,61.5 -99.16,79.55 -42.36,18.05 -95.74,27.07 -160.29,27.07 -113.27,0 -191.79,-21.2 -235.39,-63.46 -43.6,-42.25 -68.28,-95.93 -74.02,-161.05z"/>
  <polygon id="2" class="fil0" points="2339.33,6818.04 2890.5,6818.04 2890.5,6956.09 2546.03,6956.09 2546.03,7058.94 2865.36,7058.94 2865.36,7190.67 2546.03,7190.67 2546.03,7317.89 2900.74,7317.89 2900.74,7464.06 2339.33,7464.06 "/>
  <path id="3" class="fil0" d="M3421.8 7357.59l-233.37 0 -33.51 106.47 -210.26 0 250.92 -646.02 225.45 0 249.82 646.02 -215.69 0 -33.36 -106.47zm-43.6 -139.85l-72.77 -232.18 -73.09 232.18 145.86 0z"/>
  <polygon id="4" class="fil0" points="3737.72,6818.04 3929.98,6818.04 4179.95,7174.73 4179.95,6818.04 4374.54,6818.04 4374.54,7464.06 4179.95,7464.06 3931.37,7109.31 3931.37,7464.06 3737.72,7464.06 "/>
  <polygon id="5" class="fil0" points="4822.82,6818.04 5332.09,6818.04 5332.09,6956.98 5029.51,6956.98 5029.51,7069.77 5288.34,7069.77 5288.34,7200.6 5029.51,7200.6 5029.51,7464.06 4822.82,7464.06 "/>
  <path id="6" class="fil0" d="M5876.74 6818.04l205.76 0 0 384.81c0,38.04 -6.21,74.14 -18.47,107.97 -12.26,33.99 -31.5,63.61 -57.72,89.03 -26.23,25.41 -53.7,43.16 -82.4,53.53 -40.04,14.29 -88.14,21.5 -144.16,21.5 -32.42,0 -67.81,-2.25 -106.13,-6.61 -38.32,-4.36 -70.44,-13.08 -96.21,-26.17 -25.76,-13.08 -49.34,-31.58 -70.6,-55.64 -21.41,-24.05 -36,-48.87 -43.92,-74.43 -12.73,-41.05 -19.09,-77.45 -19.09,-109.17l0 -384.81 205.77 0 0 393.98c0,35.19 10.08,62.71 30.1,82.41 20.17,19.85 48.1,29.78 83.79,29.78 35.23,0 63,-9.78 83.17,-29.32 20.02,-19.4 30.11,-47.07 30.11,-82.86l0 -393.98z"/>
  <polygon id="7" class="fil0" points="6171.87,6818.04 6798.46,6818.04 6798.46,6977.74 6588.04,6977.74 6588.04,7464.06 6382.28,7464.06 6382.28,6977.74 6171.87,6977.74 "/>
  <path id="8" class="fil0" d="M7324.64 6818.04l205.76 0 0 384.81c0,38.04 -6.21,74.14 -18.47,107.97 -12.26,33.99 -31.51,63.61 -57.73,89.03 -26.23,25.41 -53.69,43.16 -82.4,53.53 -40.03,14.29 -88.14,21.5 -144.15,21.5 -32.43,0 -67.81,-2.25 -106.13,-6.61 -38.33,-4.36 -70.44,-13.08 -96.22,-26.17 -25.75,-13.08 -49.34,-31.58 -70.59,-55.64 -21.41,-24.05 -36.01,-48.87 -43.92,-74.43 -12.73,-41.05 -19.09,-77.45 -19.09,-109.17l0 -384.81 205.76 0 0 393.98c0,35.19 10.08,62.71 30.11,82.41 20.17,19.85 48.1,29.78 83.79,29.78 35.22,0 63,-9.78 83.16,-29.32 20.03,-19.4 30.11,-47.07 30.11,-82.86l0 -393.98z"/>
  <path id="9" class="fil0" d="M7669.11 7464.06l0 -646.02 343.24 0c63.62,0 112.34,5.26 145.86,15.93 33.67,10.53 60.84,30.23 81.46,58.8 20.64,28.72 30.88,63.76 30.88,104.96 0,35.79 -7.92,66.77 -23.74,92.78 -15.68,26.17 -37.4,47.22 -65.18,63.46 -17.53,10.23 -41.74,18.8 -72.3,25.57 24.51,7.96 42.36,15.78 53.53,23.75 7.45,5.27 18.46,16.69 32.9,33.99 14.27,17.29 23.9,30.68 28.7,40.15l100.08 186.62 -232.75 0 -110.01 -197c-13.97,-25.56 -26.39,-42.1 -37.25,-49.77 -14.89,-9.93 -31.81,-14.89 -50.58,-14.89l-18.15 0 0 261.65 -206.69 0zm206.69 -383.47l87.05 0c9.31,0 27.62,-3 54.63,-8.87 13.65,-2.55 24.82,-9.32 33.36,-20.3 8.68,-10.97 13.03,-23.46 13.03,-37.59 0,-20.9 -6.83,-36.99 -20.47,-48.12 -13.66,-11.28 -39.27,-16.85 -76.96,-16.85l-90.62 0 0 131.73z"/>
  <polygon id="10" class="fil0" points="8390.5,6818.04 8941.66,6818.04 8941.66,6956.09 8597.19,6956.09 8597.19,7058.94 8916.53,7058.94 8916.53,7190.67 8597.19,7190.67 8597.19,7317.89 8951.91,7317.89 8951.91,7464.06 8390.5,7464.06 "/>
  <polygon id="11" class="fil0" points="9305.37,6818.04 9500.89,6818.04 9571.18,7178.49 9674.22,6818.04 9868.17,6818.04 9971.98,7179.09 10042.74,6818.04 10237.33,6818.04 10090.38,7464.06 9888.35,7464.06 9771.35,7057.29 9655.13,7464.06 9453.41,7464.06 "/>
  <path id="12" class="fil0" d="M10262.31 7141.5c0,-105.41 30.25,-187.52 90.93,-246.17 60.67,-58.79 145.08,-88.12 253.39,-88.12 110.94,0 196.45,28.87 256.49,86.47 60.05,57.75 90,138.65 90,242.56 0,75.49 -13.04,137.3 -39.26,185.57 -26.22,48.27 -64.24,85.87 -113.74,112.78 -49.65,26.92 -111.4,40.3 -185.42,40.3 -75.1,0 -137.33,-11.57 -186.67,-34.74 -49.18,-23.31 -89.22,-60 -119.79,-110.22 -30.56,-50.08 -45.92,-112.93 -45.92,-188.43zm205.76 0.45c0,65.12 12.57,112.04 37.54,140.46 25.15,28.41 59.28,42.7 102.43,42.7 44.22,0 78.66,-13.98 102.87,-41.8 24.37,-27.97 36.46,-77.9 36.46,-150.23 0,-60.76 -12.72,-105.11 -38.01,-133.09 -25.45,-28.11 -59.75,-42.1 -103.19,-42.1 -41.59,0 -75.1,14.29 -100.24,42.71 -25.29,28.41 -37.86,75.63 -37.86,141.35z"/>
  <path id="13" class="fil0" d="M11066.7 7464.06l0 -646.02 343.24 0c63.62,0 112.34,5.26 145.86,15.93 33.67,10.53 60.84,30.23 81.46,58.8 20.64,28.72 30.88,63.76 30.88,104.96 0,35.79 -7.91,66.77 -23.74,92.78 -15.68,26.17 -37.4,47.22 -65.17,63.46 -17.54,10.23 -41.75,18.8 -72.31,25.57 24.51,7.96 42.36,15.78 53.53,23.75 7.45,5.27 18.46,16.69 32.9,33.99 14.27,17.29 23.9,30.68 28.7,40.15l100.08 186.62 -232.75 0 -110.01 -197c-13.97,-25.56 -26.39,-42.1 -37.25,-49.77 -14.89,-9.93 -31.81,-14.89 -50.58,-14.89l-18.15 0 0 261.65 -206.69 0zm206.69 -383.47l87.05 0c9.31,0 27.62,-3 54.63,-8.87 13.65,-2.55 24.82,-9.32 33.36,-20.3 8.68,-10.97 13.03,-23.46 13.03,-37.59 0,-20.9 -6.82,-36.99 -20.47,-48.12 -13.66,-11.28 -39.27,-16.85 -76.96,-16.85l-90.62 0 0 131.73z"/>
  <polygon id="14" class="fil0" points="11789.02,6818.04 11994.78,6818.04 11994.78,7062.1 12210.62,6818.04 12484.49,6818.04 12241.19,7060.75 12495.67,7464.06 12242.27,7464.06 12101.69,7198.79 11994.78,7306.76 11994.78,7464.06 11789.02,7464.06 "/>
  <polygon id="15" class="fil0" points="12564.56,6818.04 13073.84,6818.04 13073.84,6956.98 12771.25,6956.98 12771.25,7069.77 13030.07,7069.77 13030.07,7200.6 12771.25,7200.6 12771.25,7464.06 12564.56,7464.06 "/>
  <path id="16" class="fil0" d="M13158.56 7141.5c0,-105.41 30.25,-187.52 90.93,-246.17 60.67,-58.79 145.08,-88.12 253.39,-88.12 110.94,0 196.44,28.87 256.49,86.47 60.05,57.75 90,138.65 90,242.56 0,75.49 -13.04,137.3 -39.26,185.57 -26.22,48.27 -64.24,85.87 -113.74,112.78 -49.65,26.92 -111.41,40.3 -185.42,40.3 -75.1,0 -137.33,-11.57 -186.67,-34.74 -49.18,-23.31 -89.22,-60 -119.79,-110.22 -30.56,-50.08 -45.92,-112.93 -45.92,-188.43zm205.76 0.45c0,65.12 12.57,112.04 37.54,140.46 25.14,28.41 59.28,42.7 102.42,42.7 44.23,0 78.67,-13.98 102.88,-41.8 24.37,-27.97 36.46,-77.9 36.46,-150.23 0,-60.76 -12.73,-105.11 -38.01,-133.09 -25.45,-28.11 -59.75,-42.1 -103.19,-42.1 -41.59,0 -75.1,14.29 -100.24,42.71 -25.29,28.41 -37.86,75.63 -37.86,141.35z"/>
  <path id="17" class="fil0" d="M13962.96 7464.06l0 -646.02 343.24 0c63.62,0 112.34,5.26 145.86,15.93 33.67,10.53 60.84,30.23 81.46,58.8 20.64,28.72 30.88,63.76 30.88,104.96 0,35.79 -7.92,66.77 -23.74,92.78 -15.68,26.17 -37.4,47.22 -65.18,63.46 -17.53,10.23 -41.74,18.8 -72.3,25.57 24.51,7.96 42.36,15.78 53.53,23.75 7.45,5.27 18.46,16.69 32.9,33.99 14.27,17.29 23.9,30.68 28.7,40.15l100.08 186.62 -232.75 0 -110.01 -197c-13.97,-25.56 -26.39,-42.1 -37.25,-49.77 -14.89,-9.93 -31.81,-14.89 -50.58,-14.89l-18.15 0 0 261.65 -206.69 0zm206.69 -383.47l87.05 0c9.31,0 27.62,-3 54.63,-8.87 13.65,-2.55 24.82,-9.32 33.36,-20.3 8.68,-10.97 13.03,-23.46 13.03,-37.59 0,-20.9 -6.83,-36.99 -20.47,-48.12 -13.66,-11.28 -39.27,-16.85 -76.96,-16.85l-90.62 0 0 131.73z"/>
  <path id="18" class="fil0" d="M15111.69 7199.69l180.62 52.79c-12.1,49.02 -31.19,90.08 -57.41,122.86 -26.08,32.93 -58.35,57.74 -97.14,74.43 -38.64,16.69 -87.83,25.11 -147.57,25.11 -72.61,0 -131.74,-10.23 -177.82,-30.53 -45.92,-20.45 -85.5,-56.39 -118.86,-107.67 -33.36,-51.28 -50.12,-117.14 -50.12,-197.15 0,-106.77 29.32,-188.87 87.98,-246.32 58.81,-57.29 141.82,-86.02 249.21,-86.02 83.94,0 150.04,16.39 198.15,49.32 47.95,32.93 83.79,83.46 107.07,151.73l-181.56 38.95c-6.36,-19.54 -13.03,-33.83 -20.02,-42.86 -11.64,-15.18 -25.75,-26.92 -42.35,-35.04 -16.76,-8.27 -35.38,-12.33 -56.03,-12.33 -46.86,0 -82.71,18.2 -107.53,54.44 -18.77,26.92 -28.24,69.32 -28.24,126.92 0,71.57 11.17,120.45 33.67,147.06 22.5,26.47 54,39.7 94.66,39.7 39.41,0 69.2,-10.68 89.38,-32.17 20.16,-21.36 34.75,-52.49 43.91,-93.24z"/>
  <polygon id="19" class="fil0" points="15391.77,6818.04 15942.93,6818.04 15942.93,6956.09 15598.46,6956.09 15598.46,7058.94 15917.79,7058.94 15917.79,7190.67 15598.46,7190.67 15598.46,7317.89 15953.18,7317.89 15953.18,7464.06 15391.77,7464.06 "/>
  <path id="20" class="fil0" d="M16818.7 7199.69l180.62 52.79c-12.1,49.02 -31.19,90.08 -57.41,122.86 -26.07,32.93 -58.35,57.74 -97.14,74.43 -38.63,16.69 -87.83,25.11 -147.57,25.11 -72.62,0 -131.74,-10.23 -177.83,-30.53 -45.92,-20.45 -85.5,-56.39 -118.86,-107.67 -33.36,-51.28 -50.11,-117.14 -50.11,-197.15 0,-106.77 29.31,-188.87 87.97,-246.32 58.81,-57.29 141.83,-86.02 249.21,-86.02 83.94,0 150.04,16.39 198.15,49.32 47.95,32.93 83.8,83.46 107.07,151.73l-181.55 38.95c-6.37,-19.54 -13.04,-33.83 -20.02,-42.86 -11.64,-15.18 -25.76,-26.92 -42.36,-35.04 -16.76,-8.27 -35.38,-12.33 -56.02,-12.33 -46.87,0 -82.71,18.2 -107.54,54.44 -18.76,26.92 -28.24,69.32 -28.24,126.92 0,71.57 11.18,120.45 33.68,147.06 22.5,26.47 53.99,39.7 94.65,39.7 39.41,0 69.2,-10.68 89.38,-32.17 20.17,-21.36 34.76,-52.49 43.91,-93.24z"/>
  <path id="21" class="fil0" d="M17072.72 7141.5c0,-105.41 30.25,-187.52 90.93,-246.17 60.66,-58.79 145.07,-88.12 253.38,-88.12 110.94,0 196.45,28.87 256.5,86.47 60.04,57.75 89.99,138.65 89.99,242.56 0,75.49 -13.03,137.3 -39.25,185.57 -26.22,48.27 -64.24,85.87 -113.74,112.78 -49.65,26.92 -111.41,40.3 -185.42,40.3 -75.1,0 -137.33,-11.57 -186.67,-34.74 -49.19,-23.31 -89.22,-60 -119.79,-110.22 -30.56,-50.08 -45.92,-112.93 -45.92,-188.43zm205.75 0.45c0,65.12 12.57,112.04 37.55,140.46 25.14,28.41 59.28,42.7 102.42,42.7 44.22,0 78.67,-13.98 102.88,-41.8 24.36,-27.97 36.46,-77.9 36.46,-150.23 0,-60.76 -12.73,-105.11 -38.01,-133.09 -25.45,-28.11 -59.74,-42.1 -103.18,-42.1 -41.59,0 -75.11,14.29 -100.24,42.71 -25.3,28.41 -37.86,75.63 -37.86,141.35z"/>
  <path id="22" class="fil0" d="M18308.18 6818.04l205.76 0 0 384.81c0,38.04 -6.21,74.14 -18.47,107.97 -12.26,33.99 -31.5,63.61 -57.72,89.03 -26.23,25.41 -53.7,43.16 -82.4,53.53 -40.04,14.29 -88.14,21.5 -144.16,21.5 -32.42,0 -67.81,-2.25 -106.13,-6.61 -38.32,-4.36 -70.44,-13.08 -96.21,-26.17 -25.76,-13.08 -49.34,-31.58 -70.6,-55.64 -21.41,-24.05 -36,-48.87 -43.92,-74.43 -12.73,-41.05 -19.09,-77.45 -19.09,-109.17l0 -384.81 205.77 0 0 393.98c0,35.19 10.08,62.71 30.1,82.41 20.17,19.85 48.1,29.78 83.79,29.78 35.23,0 63,-9.78 83.17,-29.32 20.02,-19.4 30.11,-47.07 30.11,-82.86l0 -393.98z"/>
  <polygon id="23" class="fil0" points="18651.73,6818.04 18843.99,6818.04 19093.96,7174.73 19093.96,6818.04 19288.54,6818.04 19288.54,7464.06 19093.96,7464.06 18845.38,7109.31 18845.38,7464.06 18651.73,7464.06 "/>
  <path id="24" class="fil0" d="M19869.5 7199.69l180.62 52.79c-12.1,49.02 -31.19,90.08 -57.41,122.86 -26.08,32.93 -58.35,57.74 -97.14,74.43 -38.63,16.69 -87.83,25.11 -147.57,25.11 -72.62,0 -131.74,-10.23 -177.83,-30.53 -45.92,-20.45 -85.5,-56.39 -118.86,-107.67 -33.36,-51.28 -50.11,-117.14 -50.11,-197.15 0,-106.77 29.31,-188.87 87.97,-246.32 58.81,-57.29 141.82,-86.02 249.21,-86.02 83.94,0 150.04,16.39 198.15,49.32 47.95,32.93 83.8,83.46 107.07,151.73l-181.55 38.95c-6.37,-19.54 -13.04,-33.83 -20.03,-42.86 -11.63,-15.18 -25.75,-26.92 -42.35,-35.04 -16.76,-8.27 -35.38,-12.33 -56.03,-12.33 -46.86,0 -82.71,18.2 -107.53,54.44 -18.76,26.92 -28.24,69.32 -28.24,126.92 0,71.57 11.18,120.45 33.67,147.06 22.5,26.47 54,39.7 94.66,39.7 39.41,0 69.2,-10.68 89.38,-32.17 20.17,-21.36 34.76,-52.49 43.91,-93.24z"/>
  <polygon id="25" class="fil0" points="20157.96,6818.04 20364.64,6818.04 20364.64,7464.06 20157.96,7464.06 "/>
  <polygon id="26" class="fil0" points="20511.91,6818.04 20717.66,6818.04 20717.66,7305.26 21039.8,7305.26 21039.8,7464.06 20511.91,7464.06 "/>
  <path class="fil0" d="M3542.39 4212.26l-1732.61 0 -248.83 814.83 -1560.95 0 1862.78 -4944.22 1673.84 0 1854.71 4944.22 -1601.27 0 -247.68 -814.83zm-323.71 -1070.33l-540.29 -1776.97 -542.59 1776.97 1082.88 0z"/>
  <polygon id="1" class="fil0" points="5880.94,82.86 9661.8,82.86 9661.8,1146.28 7415.4,1146.28 7415.4,2009.46 9336.93,2009.46 9336.93,3010.73 7415.4,3010.73 7415.4,5027.09 5880.94,5027.09 "/>
  <polygon id="2" class="fil0" points="9979.74,82.86 11431.26,82.86 11953.11,2841.55 12718.04,82.86 14158.03,82.86 14928.71,2846.15 15454.02,82.86 16898.63,82.86 15807.69,5027.09 14307.8,5027.09 13439.19,1913.93 12576.34,5027.09 11078.74,5027.09 "/>
  <path id="3" class="fil0" d="M20574.65 3003.82l1340.92 403.96c-89.86,375.19 -231.55,689.39 -426.24,940.28 -193.53,252.04 -433.14,441.95 -721.15,569.7 -286.84,127.75 -652.03,192.2 -1095.55,192.2 -539.13,0 -978.04,-78.26 -1320.18,-233.63 -340.99,-156.52 -634.75,-431.59 -882.43,-824.04 -247.68,-392.46 -372.09,-896.55 -372.09,-1508.82 0,-817.13 217.72,-1445.52 653.18,-1885.16 436.6,-438.49 1052.92,-658.3 1850.11,-658.3 623.23,0 1113.98,125.45 1471.1,377.49 355.97,252.04 622.08,638.74 794.88,1161.25l-1347.83 298.08c-47.24,-149.62 -96.76,-258.95 -148.61,-328.01 -86.4,-116.24 -191.24,-206.01 -314.5,-268.15 -124.42,-63.3 -262.66,-94.38 -415.87,-94.38 -347.9,0 -614.01,139.26 -798.34,416.63 -139.38,206.01 -209.65,530.56 -209.65,971.35 0,547.82 82.94,921.86 249.98,1125.57 167.03,202.56 400.9,303.84 702.71,303.84 292.6,0 513.79,-81.72 663.55,-246.29 149.76,-163.43 258.04,-401.66 326.01,-713.56z"/>
 </g>
</svg>
